<?xml version="1.0" standalone="no"?>
<!DOCTYPE svg PUBLIC "-//W3C//DTD SVG 1.1//EN" "http://www.w3.org/Graphics/SVG/1.1/DTD/svg11.dtd" >
<svg xmlns="http://www.w3.org/2000/svg">
<metadata></metadata>
<defs>
<font id="gillionblackdbnormal" horiz-adv-x="1382" >
<font-face units-per-em="2048" ascent="1638" descent="-410" />
<missing-glyph horiz-adv-x="670" />
<glyph horiz-adv-x="0" />
<glyph unicode="&#xd;" horiz-adv-x="670" />
<glyph unicode=" "  horiz-adv-x="670" />
<glyph unicode="&#x09;" horiz-adv-x="670" />
<glyph unicode="&#xa0;" horiz-adv-x="670" />
<glyph unicode="!" horiz-adv-x="795" d="M168 240q1 174 186 260q-186 392 -186 592v2q0 135 69 241q80 121 209 121q121 0 196 -125q65 -108 65 -237q0 -207 -177 -594q91 -51 131 -102q47 -63 48 -156q0 -115 -79.5 -195t-195.5 -80q-108 0 -187.5 83t-78.5 190z" />
<glyph unicode="&#x22;" horiz-adv-x="1442" d="M12 705q84 30 139 99q34 44 85 150q-152 67 -152 246q0 110 79 187t189 77q141 0 219 -111q68 -97 68 -243q0 -67 -39 -162q-119 -290 -557 -348zM715 705q89 41 139 101q25 30 92 146l-2 -2q-153 63 -153 248q0 112 80 187t192 75q126 0 208 -107q75 -98 75 -227 q0 -244 -188 -377q-133 -94 -413 -155z" />
<glyph unicode="#" horiz-adv-x="1049" d="M16 430v139h224l53 402h-221v141h243l60 430h143l-59 -430h258l59 430h146l-62 -430h172v-139h-192l-58 -404h193v-139h-211l-59 -430h-144l60 430h-259l-61 -430h-143l61 430h-203zM383 569h256l57 404h-256z" />
<glyph unicode="$" horiz-adv-x="1087" d="M2 88v408q142 -80 153 -86q102 -50 164 -50q141 0 140 99q-1 45 -119 111q-160 90 -219 148q-117 115 -117 279q0 324 344 441q10 4 33 10v229h244v-229q122 -18 331 -164l-2 -434q-61 83 -152 145q-105 73 -192 72q-92 -1 -92 -78q0 -56 131 -133q186 -110 244 -164 q131 -124 131 -291q0 -310 -399 -419v-271h-242l2 260q-186 20 -383 117z" />
<glyph unicode="%" horiz-adv-x="1925" d="M-53 993q0 185 98 314q107 141 287 141q183 0 289 -143q96 -129 96 -318q0 -182 -97 -315q-107 -148 -282 -148q-187 0 -295 145q-96 130 -96 324zM229 975q-1 -65 18 -120q27 -75 81 -75v2q102 0 102 226q0 188 -96 188q-101 0 -105 -221zM367 31l843 1466l176 -102 l-841 -1467zM1042 451q0 185 97 317q109 147 288 147h-2q185 0 293 -149q97 -132 97 -324q0 -176 -99 -308q-108 -146 -278 -146q-190 0 -297 141q-98 127 -99 322zM1325 436q0 -65 17 -119q24 -77 75 -77q107 0 107 229q0 190 -99 190q-100 0 -100 -223z" />
<glyph unicode="&#x26;" horiz-adv-x="1589" d="M-31 360q0 127 85 223q55 62 194 150q-150 153 -150 324h-2q0 196 168 301q142 90 350 90q189 0 314 -89q141 -100 141 -282q0 -172 -235 -336l129 -123q54 55 90 148h391q-84 -190 -254 -356q49 -70 158 -70q63 0 141 41l35 -39q-198 -360 -418 -358q-117 0 -250 137 q-74 -67 -199 -106q-112 -35 -223 -35q-182 0 -316 96q-149 108 -149 284zM356 406q-1 -128 133 -130q58 0 158 54l-203 207q-46 -38 -60 -56q-27 -33 -28 -75zM502 1100q1 -71 119 -164q62 47 77 64q39 41 39 90h2q0 51 -37 84.5t-90 33.5q-48 0 -79.5 -30.5t-30.5 -77.5z " />
<glyph unicode="'" horiz-adv-x="721" d="M61 926q0 241 188 378q141 102 410 156l31 -108q-92 -46 -137.5 -95t-87.5 -145q88 -74 109 -101q42 -56 42 -141q0 -110 -74 -194q-76 -88 -186 -88q-133 -1 -217 103q-78 97 -78 235z" />
<glyph unicode="(" horiz-adv-x="963" d="M-2 530q0 401 541 947h430q-482 -482 -482 -959q0 -239 128 -517q116 -251 292 -450h-379q-254 259 -366 439q-164 264 -164 540z" />
<glyph unicode=")" horiz-adv-x="963" d="M-78 -449q465 508 465 975v-2q0 255 -123 508q-80 164 -282 443h380q275 -307 356 -432q169 -259 169 -523q0 -237 -143 -478q-93 -159 -310 -400q-44 -49 -88 -91h-424z" />
<glyph unicode="*" horiz-adv-x="1006" d="M20 1018q0 47 33 134q37 98 74 99q22 1 264 -149q-2 8 -37 133q-23 83 -24 133q-1 57 65 57h185q36 0 36 -47q0 -49 -27 -144q-21 -73 -42 -147q243 154 264 154q33 0 70 -101q32 -89 32 -132t-146 -53q-92 -1 -183 -3l192 -172q15 -13 29 -26q10 -12 10 -37 q0 -20 -87 -83q-83 -60 -112 -67q-29 6 -41 25q-9 23 -18 45l-96 227l-105 -243q-20 -48 -49 -48q-28 0 -114 67t-87 95q0 37 244 223l-266 19q-64 4 -64 41z" />
<glyph unicode="+" horiz-adv-x="1339" d="M35 465v258h465v465h260v-465h461v-258h-461v-465h-260v465h-465z" />
<glyph unicode="," horiz-adv-x="756" d="M35 -264q160 83 227 246l2 -2q-153 94 -153 245q0 114 73.5 194t184.5 81q133 1 216 -100q79 -95 79 -230q0 -237 -185 -383q-159 -125 -409 -156z" />
<glyph unicode="-" horiz-adv-x="756" d="M43 336v418h659v-418h-659z" />
<glyph unicode="." horiz-adv-x="756" d="M94 250q-1 111 82 188.5t195 77.5v2q108 0 188 -79.5t80 -188.5q0 -111 -80.5 -192t-189.5 -81q-111 0 -192.5 81.5t-82.5 191.5z" />
<glyph unicode="/" horiz-adv-x="881" d="M-33 2l479 1432h390l-482 -1432h-387z" />
<glyph unicode="0" horiz-adv-x="1339" d="M4 709q0 310 150 514q169 229 469 229q288 0 458 -225q154 -204 154 -500q0 -329 -154 -531q-172 -225 -491 -225q-274 0 -439 239q-147 212 -147 499zM455 715q0 -346 172 -346q158 0 161 356q2 119 -25 205q-41 129 -134 129q-174 0 -174 -344z" />
<glyph unicode="1" horiz-adv-x="1257" d="M385 2v1432h506v-1432h-506z" />
<glyph unicode="2" horiz-adv-x="1257" d="M20 0q523 675 523 838v2q0 90 -53.5 147t-143.5 57q-101 0 -158 -55q-30 -29 -94 -143h-28l-3 448q241 162 424 162q242 0 385 -115q154 -125 154 -360q0 -154 -98 -335q-83 -154 -211 -284l420 9v-371h-1117z" />
<glyph unicode="3" horiz-adv-x="1133" d="M80 74v370q130 -100 246 -100q166 0 166 135q0 70 -64 105q-51 28 -125 28q-34 0 -67 -6v279q46 -6 92 -6q65 0 107 31q48 35 48 98q0 62 -55 99q-49 32 -115 32q-70 0 -200 -68v322q167 67 336 67q218 0 360 -99q162 -114 162 -323q0 -154 -168 -293q196 -136 196 -333 q0 -193 -148 -319q-140 -119 -337 -120q-221 -1 -434 101z" />
<glyph unicode="4" horiz-adv-x="1298" d="M-45 276v326l639 846h424v-866h201v-308h-201v-274h-490v276h-573zM231 588h299v2q0 12 -1 40q-1 25 -1 40l2 121q2 119 11 215z" />
<glyph unicode="5" horiz-adv-x="1257" d="M74 76l22 366q86 -48 112 -58q56 -24 122 -24t117 32q59 37 59 100q0 75 -68 116q-56 33 -137 33q-72 0 -156 -35l234 830h731v-371h-336l-61 -215q331 -73 331 -393q0 -227 -165 -359q-153 -123 -385 -123q-182 0 -420 101z" />
<glyph unicode="6" horiz-adv-x="1298" d="M-16 586q0 317 233 552q176 178 518 332l436 -278q-279 -70 -421 -199q206 0 333 -140q123 -135 123 -343q0 -232 -174 -385q-168 -148 -405 -148q-278 0 -458 164q-185 169 -185 445zM436 541q0 -68 45 -119t111 -51q67 0 116.5 45t49.5 112q0 71 -48.5 117.5 t-119.5 46.5q-63 0 -108.5 -44.5t-45.5 -106.5z" />
<glyph unicode="7" horiz-adv-x="1257" d="M-4 0l522 1061h-518v373h1245l-680 -1434h-569z" />
<glyph unicode="8" horiz-adv-x="1339" d="M-4 410q1 224 223 340q-176 83 -176 290q0 208 191 323q160 97 382 97q224 0 384 -97q190 -116 190 -327q0 -171 -168 -301q215 -100 215 -321q0 -224 -203 -342q-169 -99 -409 -99q-242 0 -415 96q-215 119 -214 341zM467 457q0 -66 43.5 -113t107.5 -47 q63 0 106.5 45.5t43.5 108.5q0 61 -45 104t-107 43q-56 0 -102.5 -42.5t-46.5 -98.5zM483 1038q0 -61 38 -104t100 -43q61 0 98 47q35 44 35 106q0 45 -43.5 82t-87.5 37q-50 0 -95 -37t-45 -88z" />
<glyph unicode="9" horiz-adv-x="1298" d="M-14 932q0 235 189 384q176 138 417 138q263 0 442.5 -170t179.5 -432q0 -300 -234 -557q-212 -233 -517 -332q-42 25 -216 143q-132 89 -222 132v-2q248 59 424 202q-205 2 -336 146q-127 141 -127 348zM444 899v2q0 -68 51 -115t119 -47q66 0 109.5 47.5t42.5 114.5 q-1 65 -48.5 113.5t-111.5 48.5q-68 0 -115 -47.5t-47 -116.5z" />
<glyph unicode=":" horiz-adv-x="838" d="M86 893q0 97 86 174q83 74 182 74q114 0 193.5 -79t79.5 -192q0 -110 -79 -190t-190 -80q-121 0 -198 86q-74 83 -74 207zM90 254q1 105 83.5 182.5t186.5 77.5l-2 2q107 0 189.5 -78.5t83.5 -185.5q1 -117 -78 -197t-197 -80q-113 0 -190 83t-76 196z" />
<glyph unicode=";" horiz-adv-x="838" d="M29 -268q172 99 223 250q-150 95 -150 256q0 108 84 186q81 75 191 76q123 1 204 -101q74 -94 74 -221q0 -460 -592 -547zM104 874q1 106 81.5 185.5t185.5 79.5q116 0 195 -81.5t79 -197.5q0 -103 -80 -183.5t-182 -80.5q-122 0 -200.5 78.5t-78.5 199.5z" />
<glyph unicode="&#x3c;" horiz-adv-x="1147" d="M39 463v129l1059 479v-141l-885 -404l885 -401v-141z" />
<glyph unicode="=" horiz-adv-x="1339" d="M-68 250v260h1362v-260h-1362zM-68 680v258h1362v-258h-1362z" />
<glyph unicode="&#x3e;" horiz-adv-x="1147" d="M51 -16v141l887 401l-887 404v141l1059 -479v-129z" />
<glyph unicode="?" horiz-adv-x="838" d="M57 1004l152 434h-2q123 20 184 20q163 0 284 -94q130 -101 130 -258q0 -109 -79 -217q-14 -20 -147 -165q-79 -87 -79 -142q0 -49 12 -78q188 -91 188 -256q0 -118 -79 -199t-197 -82q-109 -1 -188 84q-77 82 -76 193q0 83 44 142q30 40 111 101q-49 73 -49 160 q0 48 38 131t38 129q0 56 -49 88q-43 28 -100 27q-85 -2 -136 -18z" />
<glyph unicode="@" horiz-adv-x="2114" d="M305 754q0 324 230.5 553t556.5 229q288 0 496 -178q218 -187 218 -471q0 -210 -141 -399q-152 -203 -354 -203q-59 0 -96 36.5t-37 94.5l-4 -2q-117 -128 -250 -127q-135 1 -223 101q-85 96 -85 230q0 219 130 390q141 186 352 186q167 0 239 -164l41 129h142 q-51 -170 -148 -510q-39 -144 -39 -168q0 -61 43 -61q126 0 217 168q79 145 78 282q-1 241 -172 392q-163 145 -405 145q-276 0 -459 -197q-178 -192 -178 -469q0 -274 187 -461.5t462 -187.5q145 0 280.5 63t225.5 175h139q-101 -170 -276 -268.5t-375 -98.5 q-333 0 -564 229t-231 562zM786 635q0 -83 45 -140q49 -62 132 -63q126 -1 223 149q86 134 86 269q0 72 -48 130q-51 60 -122 60v2q-133 0 -229 -140q-87 -127 -87 -267z" />
<glyph unicode="A" horiz-adv-x="1720" d="M-94 0q27 54 45 96q182 448 565 1336l533 -2q11 -25 32 -74l531 -1266q13 -32 33 -90h-519q-46 144 -92 240l-506 -2q-37 -72 -92 -238h-530zM625 524h309q-9 29 -80 239q-49 145 -66 243q-34 -174 -163 -482z" />
<glyph unicode="B" horiz-adv-x="1507" d="M70 2v1432l792 -2q194 0 324 -81q155 -95 155 -278q0 -196 -184 -295q270 -79 268 -370q0 -205 -143 -311q-127 -95 -338 -95h-874zM592 246q155 6 205 27q100 40 100 165l2 -2q0 89 -54 141t-143 52h-110v-383zM596 874h98q61 0 110 33q56 37 56 94v37q0 61 -47.5 105.5 t-107.5 44.5h-109v-314z" />
<glyph unicode="C" horiz-adv-x="1425" d="M10 725q0 326 234 535q225 202 553 202q281 0 499 -116v-467q-215 159 -408 159h-5q-126 0 -225 -89t-99 -214q0 -160 101 -248q97 -84 260 -84q203 2 393 146v-451q-11 -3 -37 -20q-208 -109 -457 -109q-340 0 -570 206q-239 214 -239 550z" />
<glyph unicode="D" horiz-adv-x="1634" d="M53 2v1432l510 -2q256 -1 379 -26q199 -39 338 -161q240 -211 240 -551q0 -243 -138 -422q-118 -153 -273 -216q-136 -54 -347 -54h-709zM580 365h38q353 0 353 335q0 172 -82 269q-87 104 -256 104h-53v-708z" />
<glyph unicode="E" horiz-adv-x="1212" d="M82 2v1432h1036v-322h-508v-215h475v-324h-477v-249h537v-322h-1063z" />
<glyph unicode="F" horiz-adv-x="1171" d="M84 0v1432h1040v-320h-516v-217h502v-322h-502v-573h-524z" />
<glyph unicode="G" horiz-adv-x="1507" d="M12 725q0 346 252 548q232 187 586 187q240 0 510 -92v-410q-216 146 -426 146q-164 0 -268.5 -106.5t-104.5 -268.5q0 -151 87 -256q93 -113 241 -113q34 0 67 7v135h-139v323h572v-794q-329 -64 -543 -64q-356 0 -588 199q-246 209 -246 559z" />
<glyph unicode="H" horiz-adv-x="1759" d="M49 2v1434h529v-510h487v508h522v-1434h-524v539h-481v-537h-533z" />
<glyph unicode="I" horiz-adv-x="756" d="M102 2v1432h525v-1432h-525z" />
<glyph unicode="J" horiz-adv-x="838" d="M-135 -72q11 0 33.5 -1t33.5 -1v2q107 0 164 68q54 62 54 170v1268h526v-1516q0 -15 -17 -84q-84 -352 -481 -352q-33 0 -98 4z" />
<glyph unicode="K" horiz-adv-x="1589" d="M55 -2v1432h531v-564l391 566h610l-514 -682l520 -754h-632l-375 625v-623h-531z" />
<glyph unicode="L" horiz-adv-x="1171" d="M80 0v1436h524v-1051h535v-385h-1059z" />
<glyph unicode="M" horiz-adv-x="1884" d="M43 1434l479 -2q164 -222 196 -269q112 -163 163 -286l22 71q44 67 135 201q68 92 193 285h481v-1432h-522v576q0 28 3 73q4 57 5 72q-62 -145 -324 -506q-112 168 -323 514q16 -131 16 -147v-582l-522 2z" />
<glyph unicode="N" horiz-adv-x="1800" d="M45 2v1430h459q152 -174 457 -521q110 -125 159 -200q-16 65 -16 176v540h524v-1427h-457q-62 81 -319 360q-201 219 -295 377q16 -164 16 -184v-551h-528z" />
<glyph unicode="O" horiz-adv-x="1634" d="M0 709q0 338 208.5 544.5t547.5 206.5v2q331 0 542 -205t211 -536q0 -335 -211.5 -543.5t-547.5 -208.5q-326 0 -538 207t-212 533zM524 711q0 -113 58 -193q65 -92 176 -92l-2 2q108 0 171 92q55 80 56 193v4q0 111 -52 194q-61 99 -169 99q-120 0 -183 -92 q-55 -80 -55 -207z" />
<glyph unicode="P" horiz-adv-x="1425" d="M59 2v1475h777q252 0 401 -112q168 -126 168 -372q0 -209 -142 -336q-131 -117 -345 -135q-51 -4 -314 -4v-516h-545zM606 827h60q84 0 144 41q69 46 69 127q0 179 -197 179h-76v-347z" />
<glyph unicode="Q" horiz-adv-x="1634" d="M-2 735q0 340 215 555t555 215q341 0 561 -203q227 -210 227 -548q0 -385 -313 -607q99 -52 410 -163l-393 -316q-195 57 -351 119q-429 171 -621 333q-290 246 -290 615zM600 530q62 -90 174 -90v-2q115 0 179 95q56 82 57 202v5q0 120 -52 200q-62 96 -180 96 q-119 0 -181 -100q-52 -82 -52 -204q0 -123 55 -202z" />
<glyph unicode="R" horiz-adv-x="1550" d="M55 1477h373q77 0 231 -1t232 -1q176 0 272 -48q238 -117 238 -378q0 -226 -207 -340q140 -61 397 -709h-575q-62 181 -129 336q-64 145 -99 187q-64 75 -188 83v-606h-543zM598 870h74q76 0 137 48q65 52 65 126q0 72 -58 119q-55 43 -128 43h-90v-336z" />
<glyph unicode="S" horiz-adv-x="1087" d="M-2 90v424q125 -74 168 -94q100 -47 184 -47q43 0 79 24q40 26 40 69q0 57 -121 125q-171 98 -228 153q-122 121 -122 300q0 199 156 333q148 127 350 128h3q230 0 470 -178v-440q-212 217 -342 217q-34 0 -68 -23q-37 -26 -37 -59q0 -57 135 -138q192 -116 250 -171 q134 -126 134 -291q0 -217 -176 -342q-155 -110 -381 -111h-4q-217 0 -490 121z" />
<glyph unicode="T" d="M-59 1083v394h1421v-396h-440v-1081h-545v1083h-436z" />
<glyph unicode="U" horiz-adv-x="1759" d="M43 768v713h543v-766q0 -316 254 -316q245 0 245 336v746h543v-690q0 -413 -190 -612q-194 -204 -604 -204q-791 0 -791 793z" />
<glyph unicode="V" horiz-adv-x="1634" d="M-84 1477h596q189 -522 279 -840q45 182 130 423q76 208 152 417h541q-66 -172 -179 -429q-177 -400 -188 -425l-266 -623h-469z" />
<glyph unicode="W" horiz-adv-x="2222" d="M-113 1479h572v-2q22 -95 99 -356q65 -222 91 -357l211 711h361q125 -385 211 -719q104 410 200 721h576q-63 -160 -312 -854q-76 -206 -221 -621h-411q-79 244 -224 735q-85 -302 -223 -733h-411q-267 784 -519 1475z" />
<glyph unicode="X" horiz-adv-x="1720" d="M-84 0q194 246 571 743l-559 734h650l243 -312l238 312h631l-560 -719q80 -103 238 -312q107 -152 336 -444h-664l-239 328l-260 -330h-625z" />
<glyph unicode="Y" horiz-adv-x="1550" d="M-78 1477h637v-2l116 -190q67 -112 97 -200q27 88 93 200l114 190h557l-532 -797v-674h-549l-2 658q-21 36 -64 108z" />
<glyph unicode="Z" horiz-adv-x="1507" d="M-70 0l705 1112h-676v367h1544l-690 -1108h657v-371h-1540z" />
<glyph unicode="[" horiz-adv-x="1006" d="M150 -467v1987h854v-271h-345v-1448h340v-268h-849z" />
<glyph unicode="\" horiz-adv-x="578" d="M-35 1536h137l512 -1575h-139z" />
<glyph unicode="]" horiz-adv-x="1006" d="M-25 -197h344v1454h-344v263h844v-1983h-844v266z" />
<glyph unicode="^" horiz-adv-x="0" d="M-397 1587l114 291h545l115 -289h-287l-98 135l-109 -137h-280z" />
<glyph unicode="_" horiz-adv-x="1157" d="M0 -156h1157v-104h-1157v104z" />
<glyph unicode="`" horiz-adv-x="0" d="M-469 1575h436l178 -318h-276z" />
<glyph unicode="a" horiz-adv-x="1212" d="M16 262q0 147 116 227q52 36 245 107q78 29 231 90q-3 70 -22 94q-23 31 -90 31q-204 0 -451 -256v408q223 204 545 204h6q176 -1 306 -74q154 -88 173 -249q7 -54 8 -162v-24q0 -38 -2 -92l-4 -117q0 -103 127 -103l-100 -377q-153 7 -216 19q-120 23 -196 88 q-167 -91 -323 -92h-5q-147 0 -238 61q-110 73 -110 217zM389 293q0 -37 38 -65q35 -27 73 -27q24 0 57 13q46 19 53 22v229q-221 -72 -221 -172z" />
<glyph unicode="b" d="M51 -4v1483h481l3 -332q186 27 217 27q229 0 400 -176t171 -406q0 -278 -163 -437t-441 -159h-668zM530 756l2 -340q43 -6 86 -6q86 0 143 44q62 47 62 127t-56 133t-132 54q-32 0 -105 -12z" />
<glyph unicode="c" horiz-adv-x="1087" d="M14 555q0 272 192 446q185 168 460 168q73 0 173 -22q85 -21 171 -41v-412q-174 68 -260 68q-99 0 -166 -45q-76 -52 -76 -146q0 -87 75 -136q65 -42 156 -42q112 0 281 62l2 -410q-184 -65 -377 -65q-256 0 -439 157q-192 165 -192 418z" />
<glyph unicode="d" d="M-2 618q0 232 155 392q156 164 388 164q117 0 243 -50v353h478v-1479h-707q-253 0 -410 187q-147 175 -147 433zM489 594q0 -82 57.5 -138.5t139.5 -56.5q49 0 100 19v334q-45 16 -73 16q-94 0 -153 -39q-71 -47 -71 -135z" />
<glyph unicode="e" horiz-adv-x="1257" d="M4 573q0 259 181 428q177 164 438 164q282 0 438 -207q141 -186 141 -477h-751v2q48 -108 106 -150q62 -43 176 -44h6q97 0 222 30q3 1 223 62l-2 -303q-261 -101 -533 -101q-280 0 -458 156q-187 164 -187 440zM442 666h349q-19 99 -45 143q-42 70 -123 70 q-75 0 -130 -71q-51 -65 -51 -142z" />
<glyph unicode="f" horiz-adv-x="838" d="M-8 727v311h147q-2 19 -2 56q0 193 122 302q116 104 312 105q51 0 244 -28v-332q-55 18 -96 18q-101 0 -105 -121h166v-311h-164v-727h-479v727h-145z" />
<glyph unicode="g" horiz-adv-x="1171" d="M-4 -244q0 94 77 157q49 40 163 85q-86 70 -86 145q0 91 133 166q-267 124 -267 412q0 191 157 315q145 115 341 115h647v-264h-137q45 -93 45 -187q0 -177 -111 -289q-64 -64 -206 -130q-111 -52 -111 -84q0 -43 127 -72q172 -39 235 -76q125 -74 125 -227 q0 -183 -214 -272q-157 -64 -371 -64q-203 0 -340 44q-207 68 -207 226zM387 -225q0 -99 164 -99q176 0 176 111q0 39 -104 69q-70 15 -140 31q-96 -69 -96 -112zM401 705q0 -62 40.5 -108t101.5 -46h2q57 0 103 44t46 101q0 59 -40 103.5t-99 44.5q-55 0 -103 -41 q-51 -44 -51 -98z" />
<glyph unicode="h" d="M49 0v1479h479v-447q198 144 351 144q179 0 289 -156q100 -139 100 -326v-694h-480v629q0 47 -21 87q-26 48 -69 48q-51 0 -96 -38q-6 -5 -74 -79v-647h-479z" />
<glyph unicode="i" horiz-adv-x="670" d="M90 2v1145h475v-1145h-475zM220 1455q42 46 104 46v-2q64 0 111.5 -42t47.5 -105q0 -67 -41.5 -111.5t-107.5 -44.5q-63 0 -110 44q-46 43 -46 103q-1 65 42 112z" />
<glyph unicode="j" horiz-adv-x="670" d="M-84 -156q95 35 129.5 81.5t34.5 146.5v1073h477v-1247q0 -363 -426 -426q-118 175 -215 372zM166 1346q0 63 46 107t112 44h-2q64 0 108.5 -48t44.5 -114q0 -57 -51 -101q-49 -42 -106 -42h-3q-62 1 -105.5 46.5t-43.5 107.5z" />
<glyph unicode="k" horiz-adv-x="1464" d="M49 0v1477h475v-680q132 173 289 352h582l-432 -498l520 -651h-609q-58 94 -176 250q-130 172 -180 248q8 -135 10 -312v-18q0 -51 -4 -168h-475z" />
<glyph unicode="l" horiz-adv-x="670" d="M88 4v1473h477v-1473h-477z" />
<glyph unicode="m" horiz-adv-x="2095" d="M16 1145h476v-101q106 68 163 93q90 39 183 39q176 0 325 -146q194 146 361 146q256 0 363 -178q83 -139 83 -414v-588h-475v577q0 199 -106 199q-67 0 -154 -100v-674h-477v559q0 211 -104 211h-1q-51 -1 -90 -34q-13 -11 -65 -72v-664h-480q0 122 3.5 365.5t3.5 365.5 q0 233 -9 416z" />
<glyph unicode="n" d="M53 0v1145h473v-98q117 67 166 87q90 37 182 37q186 0 294 -155q96 -137 96 -330v-688h-473l2 596q0 164 -105 164q-84 0 -158 -96v-662h-477z" />
<glyph unicode="o" d="M-2 580q0 262 211 433q198 161 467 161q268 0 452 -173q189 -176 189 -444q0 -247 -199 -418q-189 -164 -442 -164q-274 0 -470 163q-208 173 -208 442zM479 557q0 -70 54 -131t122 -61q76 0 132 67q53 64 53 139q0 79 -49 142q-53 67 -129 67q-87 0 -138 -71 q-45 -63 -45 -152z" />
<glyph unicode="p" d="M49 -524v1673h486l2 -68q156 95 303 95q209 0 353 -197q132 -178 132 -395q0 -251 -146 -427q-154 -187 -401 -188q-71 0 -246 54v-547h-483zM528 741l2 -331q64 -25 117 -25q86 0 136 62q46 57 46 141q0 83 -53 139q-51 55 -126 55h-3q-46 0 -119 -41z" />
<glyph unicode="q" d="M-2 541q0 230 122 385t345 204q73 17 96 17h699v-1671h-480l2 530q-118 -31 -168 -31q-221 0 -360 103q-114 84 -183 201q-73 127 -73 262zM494 553q0 -70 52 -120t122 -50q50 0 112 18v351h2q-45 9 -90 10h-3q-85 0 -139 -60q-56 -61 -56 -149z" />
<glyph unicode="r" horiz-adv-x="1087" d="M68 0v1147h475l2 -174q62 65 124 129q68 67 164 67h3q66 0 156 -36q83 -34 141 -78l-230 -469q-79 96 -180 96q-87 0 -139 -100q-41 -82 -41 -179v-403h-475z" />
<glyph unicode="s" horiz-adv-x="920" d="M-23 807q0 175 148 276q129 88 311 88q195 0 395 -100v-348q-52 46 -129 80q-84 37 -147 37q-23 0 -49 -16q-29 -18 -29 -40q0 -41 107 -93q146 -73 198 -117q107 -94 107 -232q0 -189 -144 -284q-122 -82 -321 -83h-4q-212 0 -428 95v352q190 -133 306 -133h3 q25 0 55 15q35 18 35 40q0 50 -107 109q-156 85 -199 124q-108 94 -108 230z" />
<glyph unicode="t" horiz-adv-x="1047" d="M-27 729v172l574 590h100v-453h320v-313h-330l2 -18q0 -30 -2 -89.5t-2 -89.5q0 -62 31 -104q34 -45 94 -45q114 0 231 92l2 -393q-227 -101 -394 -101h-3q-155 1 -273 75q-132 82 -159 224q-14 75 -14 203q0 42 2 125t2 125h-181z" />
<glyph unicode="u" d="M51 444v701h475v-627q0 -53 36.5 -94t88.5 -41q93 0 142 78v684h475v-680q0 -80 18 -107q21 -30 96 -45l-98 -342h-94q-149 0 -213 22q-79 26 -178 120q-68 -57 -163 -96q-102 -42 -183 -42q-195 0 -303 141q-99 128 -99 328z" />
<glyph unicode="v" horiz-adv-x="1257" d="M-59 1145h516q60 -170 168 -516q21 110 72 261q45 128 89 257h457l-465 -1147h-381z" />
<glyph unicode="w" horiz-adv-x="1845" d="M-94 1145h512q37 -105 108 -318q13 -52 45 -155q21 97 75 239q82 212 89 234l264 2q64 -158 164 -481q52 215 148 475h514q-146 -383 -449 -1141l-323 2q-16 52 -103 298q-64 181 -90 300q-23 -131 -84 -303q-55 -147 -110 -295h-318z" />
<glyph unicode="x" d="M-57 0l428 563l-424 582h585l146 -189l149 191h516l-411 -543l434 -604h-584l-155 219l-160 -219h-524z" />
<glyph unicode="y" horiz-adv-x="1298" d="M-76 1145h525v2q1 -5 87 -218q53 -130 72 -222q89 232 197 438h479l-795 -1667h-462l342 729z" />
<glyph unicode="z" horiz-adv-x="1212" d="M-70 0q136 244 482 768h-420v377h1198q-23 -50 -41 -80l-139 -231q-131 -216 -287 -453h424v-381h-1217z" />
<glyph unicode="{" horiz-adv-x="694" d="M86 612q116 0 152 141q20 76 16 232l-2 88q-4 185 23 275q48 155 194 155h139v-135h-92q-98 0 -96 -170l2 -237q0 -34 -2 -115q-3 -89 -51 -176q-54 -97 -131 -117v-4q115 -35 157 -172q27 -87 27 -246q0 -33 -2 -89q-2 -67 -2 -89q-4 -225 98 -225h92v-136h-139 q-99 0 -159 88q-54 77 -54 181v356q0 95 -37 173q-47 97 -131 97v125h-2z" />
<glyph unicode="|" horiz-adv-x="541" d="M197 -39v1575h151v-1575h-151z" />
<glyph unicode="}" horiz-adv-x="694" d="M88 -272h90q98 0 98 225q0 32 -1 89q-2 63 -3 89q-3 361 187 416l-2 4q-78 20 -132 117q-49 87 -51 174v356q0 170 -96 170h-90v135h139q217 0 217 -388q0 -25 -1 -69t-1 -61q0 -167 16 -232q35 -141 150 -141v-125h2q-85 0 -132 -97q-38 -77 -38 -173v-356 q0 -104 -53 -181q-61 -88 -160 -88h-139v136z" />
<glyph unicode="~" horiz-adv-x="0" d="M-436 1716q37 73 113 120.5t157 47.5v2q55 0 154.5 -37t152.5 -37q57 0 95 52l182 -123q-84 -80 -120 -104q-72 -48 -148 -48q-55 0 -155 39t-155 39q-41 0 -100 -55z" />
<glyph unicode="&#xa1;" horiz-adv-x="795" d="M111 348q-2 206 188 623q-85 29 -136.5 99.5t-51.5 160.5h2q0 117 82.5 198.5t199.5 81.5q112 1 192.5 -82t80.5 -194q0 -90 -52.5 -163t-138.5 -105q189 -390 189 -615q0 -136 -68 -247q-80 -129 -207 -130q-129 0 -210 126q-70 109 -70 247z" />
<glyph unicode="&#xa2;" horiz-adv-x="1087" d="M14 553q0 231 143 397q140 164 369 207v205h236v-199q83 -19 248 -57v-412q-174 68 -262 68q-98 0 -164 -45q-76 -52 -76 -146q0 -87 75 -136q65 -42 156 -42q112 0 281 62v-408q-126 -46 -258 -61v-217h-236v221q-220 36 -362 187q-150 157 -150 376z" />
<glyph unicode="&#xa3;" horiz-adv-x="1171" d="M-33 0l185 578h-166v333h280q74 281 261 437q194 161 479 161h8l141 -438q-65 8 -98 8q-103 0 -155.5 -36.5t-94.5 -133.5h145v-331h-256l-59 -185h477l-63 -393h-1084z" />
<glyph unicode="&#xa7;" d="M35 578q0 184 168 352q-64 112 -64 200l-2 -2q0 161 144 281q124 104 413 104q182 0 327 -61q191 -81 191 -238q0 -82 -61 -129q-56 -43 -141 -43q-99 1 -136 60q-26 55 -53 110q-44 58 -162 58q-49 -1 -87 -21q-48 -25 -48 -69q1 -74 200 -165q276 -125 369 -199 q197 -157 197 -396q0 -162 -162 -363q22 -30 41 -91t19 -99q0 -191 -167 -294q-141 -87 -345 -87t-352 53q-212 76 -213 242q-1 83 66 130q59 42 147 42q96 0 131 -59l48 -108q39 -58 148 -58q55 0 97 18q55 23 55 70q-1 59 -64 91q-80 41 -90 56q-299 126 -413 216 q-201 159 -201 399zM369 643q0 -86 141 -174q22 -13 219 -111q94 -46 174 -92q49 40 49 84v-2q0 98 -177 195q-130 66 -261 131q-32 20 -96 59q-49 -59 -49 -90z" />
<glyph unicode="&#xa8;" horiz-adv-x="0" d="M-457 1423q1 68 51 117t117 49h-2q73 0 123.5 -49.5t50.5 -122.5q0 -60 -48 -111t-107 -51h-37q-60 0 -104 53t-44 115zM98 1438q0 65 53 110q50 43 117 43q72 0 120 -47.5t48 -120.5q0 -71 -51 -118.5t-123 -47.5q-73 0 -119 56q-45 52 -45 127v-2z" />
<glyph unicode="&#xa9;" horiz-adv-x="1556" d="M57 666q0 288 205 493t494 205q288 0 493 -204.5t205 -491.5q0 -289 -205 -494t-493 -205q-289 0 -494 204.5t-205 492.5zM139 666q0 -254 181.5 -435.5t435.5 -181.5q253 0 435.5 182t182.5 435q0 254 -182 436t-436 182t-435.5 -181.5t-181.5 -436.5zM379 649 q0 165 106 282q109 121 273 122q36 0 105.5 -20.5t105.5 -20.5q41 -1 47 35h41l8 -261h-43q-16 92 -81 152q-68 61 -159 61q-126 1 -204 -114q-69 -101 -70 -236q-1 -138 66 -221q74 -91 210 -90q88 0 143 27q29 13 120 79l20 -34q-147 -151 -301 -152q-174 -1 -280.5 108 t-106.5 283z" />
<glyph unicode="&#xab;" horiz-adv-x="1464" d="M-29 561l373 514h422l-387 -518l379 -518h-408zM641 559l373 516h420l-385 -518l378 -522h-415z" />
<glyph unicode="&#xac;" horiz-adv-x="1405" d="M-6 471v111h1343v-582h-112v471h-1231z" />
<glyph unicode="&#xad;" horiz-adv-x="756" d="M43 336v418h659v-418h-659z" />
<glyph unicode="&#xae;" horiz-adv-x="1556" d="M55 655q0 289 205.5 494t495.5 205q287 0 491.5 -205t204.5 -494q0 -286 -205.5 -490t-492.5 -204v-2q-289 0 -494 204t-205 492zM137 651q0 -255 180.5 -434.5t436.5 -179.5q253 0 434.5 181.5t181.5 434.5q0 255 -181.5 436t-436.5 181v2q-256 0 -435.5 -182 t-179.5 -439zM420 303v39q100 0 100 51v584q0 48 -23 57q-10 4 -65 2v37h344q275 0 275 -188q0 -86 -59 -143.5t-144 -59.5l244 -311q22 -29 69 -29v-39h-190l-269 359h-53v-263q0 -57 94 -57v-39h-323zM647 989l2 -278q118 4 174 26q92 37 92 131q0 83 -37 118 q-34 32 -118 40q-24 2 -70 6q-43 0 -43 -43z" />
<glyph unicode="&#xb0;" horiz-adv-x="670" d="M-102 1077q0 126 89 214.5t214 88.5t215 -88.5t90 -214.5q0 -124 -90 -212.5t-213 -88.5h-2q-125 0 -214 88.5t-89 212.5zM-23 1077q0 -90 66 -154.5t156 -64.5q91 0 157.5 66t67.5 157q1 90 -66.5 156t-158.5 66q-92 0 -157 -66.5t-65 -159.5z" />
<glyph unicode="&#xb1;" horiz-adv-x="1081" d="M-8 0v111h1069v-111h-1069zM-8 713v112h479v480h111v-480h479v-112h-479v-477h-111v477h-479z" />
<glyph unicode="&#xb4;" horiz-adv-x="0" d="M-139 1255l178 326h448q-167 -148 -178 -157q-101 -92 -170 -169h-278z" />
<glyph unicode="&#xb5;" horiz-adv-x="1135" d="M35 -305q0 55 28.5 161.5t28.5 161.5v992h174v-670q0 -234 191 -234q63 0 132 47.5t95 106.5v750h174v-774q0 -60 24 -109q30 -61 83 -61q57 0 79 46q16 48 31 95h39q-57 -240 -244 -240q-89 0 -133 59q-31 41 -53 140q-49 -78 -136 -137q-94 -63 -179 -64q-62 0 -112 30 q-47 35 -93 71v-48q0 -56 33.5 -162.5t33.5 -162.5q1 -52 -22 -93q-27 -51 -76 -51t-76 50q-22 41 -22 96z" />
<glyph unicode="&#xb6;" horiz-adv-x="1389" d="M182 1057q0 200 133 310q124 103 328 103h479v-112h-69v-1706h-121v1706h-301v-1706h-121v1012q-154 24 -241 129.5t-87 263.5z" />
<glyph unicode="&#xb8;" horiz-adv-x="0" d="M-195 -506l13 176q65 -4 98 -4q131 0 131 64q0 58 -72 77v17l76 184h213l-41 -110q83 -31 119 -64q47 -45 47 -121q0 -223 -412 -227q-50 -1 -172 8z" />
<glyph unicode="&#xbb;" horiz-adv-x="1464" d="M-45 39l383 522l-375 514h412l368 -518l-374 -518h-414zM625 37l383 522l-379 514h411l371 -516l-371 -520h-415z" />
<glyph unicode="&#xbf;" horiz-adv-x="838" d="M-31 342q0 114 83 226q12 17 152 171q83 90 83 150q0 37 -13 74q-100 53 -143 102q-55 65 -55 164q0 116 80 198t194 82t200 -79q87 -82 87 -195q0 -174 -160 -256q51 -87 51 -154q0 -66 -42 -151t-42 -123q0 -59 44 -94q41 -32 102 -31q57 1 151 25l-157 -453 q-114 -27 -187 -27q-169 0 -294 100q-134 106 -134 271z" />
<glyph unicode="&#xc0;" horiz-adv-x="1720" d="M-94 0q17 33 49 100l541 1289q13 28 39 86h548q92 -207 582 -1383q11 -31 35 -92h-537q-38 122 -92 248h-522q-39 -80 -96 -248h-547zM332 1876h438l174 -291h-321zM647 541h320q-17 63 -82 247q-54 154 -72 250q-36 -176 -166 -497z" />
<glyph unicode="&#xc1;" horiz-adv-x="1720" d="M-94 0q17 33 49 100l541 1289q13 28 39 86h548q92 -207 582 -1383q11 -31 35 -92h-537q-38 122 -92 248h-522q-39 -80 -96 -248h-547zM614 1585l166 293l455 2q-67 -54 -158 -144l-151 -151h-312zM647 541h320q-17 63 -82 247q-54 154 -72 250q-36 -176 -166 -497z" />
<glyph unicode="&#xc2;" horiz-adv-x="1720" d="M-94 0q17 33 49 100l541 1289q13 28 39 86h548q92 -207 582 -1383q11 -31 35 -92h-537q-38 122 -92 248h-522q-39 -80 -96 -248h-547zM387 1587l115 291h547l112 -289h-289l-96 135l-108 -137h-281zM647 541h320q-17 63 -82 247q-54 154 -72 250q-36 -176 -166 -497z" />
<glyph unicode="&#xc3;" horiz-adv-x="1720" d="M-94 2q17 33 49 100l541 1289q13 28 39 86h548q92 -207 582 -1383q11 -31 35 -92h-537q-38 122 -92 248h-522q-39 -80 -96 -248h-547zM346 1718q120 166 275 166v2q54 0 153.5 -37t151.5 -37q56 0 94 52l182 -123q-143 -152 -266 -152q-54 0 -154.5 39t-154.5 39 q-51 0 -103 -55zM647 543h320q-17 63 -82 247q-54 154 -72 250q-36 -176 -166 -497z" />
<glyph unicode="&#xc4;" horiz-adv-x="1720" d="M-88 0q170 411 442 1053q63 140 178 424h551q28 -66 316 -736q190 -445 301 -741l-539 2q-39 133 -88 246h-526q-40 -75 -94 -248h-541zM354 1714q0 70 50.5 120t119.5 50l2 2q70 0 117.5 -47.5t46.5 -118.5q-1 -67 -48 -115t-114 -49q-66 0 -120 47t-54 111zM647 543 q13 0 39.5 -1t40.5 -1l240 2q-44 126 -87 252q-50 148 -63 258q-30 -151 -170 -510zM963 1722q0 71 53 120.5t125 49.5q65 1 113.5 -48.5t48.5 -114.5q0 -70 -47.5 -118t-116.5 -48q-73 0 -124.5 45t-51.5 116v-2z" />
<glyph unicode="&#xc5;" horiz-adv-x="1720" d="M-88 0q281 676 625 1475l546 2l39 -93l541 -1294q19 -46 37 -90h-537q-24 84 -90 248h-528l-92 -248h-541zM526 1731q0 106 100 164q82 49 197 49q106 0 189 -51q96 -59 96 -158q0 -103 -104 -162q-87 -50 -197 -49q-106 1 -186 51q-95 58 -95 156zM647 541h320 q-3 9 -85 250q-49 140 -67 262q-46 -210 -168 -512zM698 1720q0 -27 48 -46q40 -15 73 -15v-2q40 0 74 16q43 20 43 56q0 79 -131 79q-107 0 -107 -88z" />
<glyph unicode="&#xc6;" horiz-adv-x="2136" d="M-141 -2l716 1479h1457v-332h-549v-219h518v-336h-516v-258h583v-334h-1126v483h-313l-209 -483h-561zM758 774h184v414z" />
<glyph unicode="&#xc7;" horiz-adv-x="1425" d="M6 748q0 336 241 552q232 209 572 209q285 0 512 -120v-482q-231 166 -426 166q-142 0 -237 -97t-95 -241q0 -149 113 -238q104 -81 256 -81q210 0 406 153v-467q-11 -3 -37 -20q-212 -111 -473 -111q-351 0 -587 211q-245 219 -245 566zM459 -506l10 174l-2 2 q70 -4 106 -4q132 0 132 72q0 48 -76 69v17l80 184h209l-39 -106q164 -65 163 -183q-1 -229 -413 -233q-53 -1 -170 8z" />
<glyph unicode="&#xc8;" horiz-adv-x="1212" d="M78 2v1475h1067v-332h-522v-219h489v-334h-491v-258h555v-332h-1098zM109 1876h438l176 -291h-324z" />
<glyph unicode="&#xc9;" horiz-adv-x="1212" d="M78 2v1475h1067v-332h-522v-219h489v-334h-491v-258h555v-332h-1098zM391 1585l170 293l453 2q-67 -54 -158 -144l-151 -151h-314z" />
<glyph unicode="&#xca;" horiz-adv-x="1212" d="M78 2v1475h1067v-332h-522v-219h489v-334h-491v-258h555v-332h-1098zM164 1587l117 291h546l113 -289h-289l-96 135l-109 -137h-282z" />
<glyph unicode="&#xcb;" horiz-adv-x="1212" d="M76 1726q0 66 49 113t117 47q71 0 120.5 -46t49.5 -116q0 -66 -48.5 -111.5t-113.5 -45.5q-69 0 -120.5 46t-51.5 113h-2zM78 2v1475h1067v-332h-522v-219h489v-334h-491v-258h555v-332h-1098zM682 1724q0 66 49.5 113t114.5 47q69 0 119 -44q52 -47 53 -116 q1 -72 -54 -116q-50 -41 -124 -41q-63 0 -110.5 48.5t-47.5 108.5z" />
<glyph unicode="&#xcc;" horiz-adv-x="756" d="M-102 1876h442l170 -291h-317zM104 2v1475h541v-1475h-541z" />
<glyph unicode="&#xcd;" horiz-adv-x="756" d="M100 2v1475h541v-1475h-541zM176 1585l170 293l455 2q-66 -54 -158 -144q-142 -140 -154 -151h-313z" />
<glyph unicode="&#xce;" horiz-adv-x="756" d="M-43 1587l117 291h547l112 -289h-289l-96 135l-110 -137h-281zM106 2v1475h541v-1475h-541z" />
<glyph unicode="&#xcf;" horiz-adv-x="756" d="M-139 1726q0 67 47 113.5t115 46.5t118 -42q52 -45 52 -113q-1 -70 -48 -117t-114 -47q-71 0 -120.5 45t-49.5 114zM100 2v1475h541v-1475h-541zM467 1726q0 66 48 112t114 46h2q71 0 120.5 -44.5t49.5 -115.5q0 -72 -53 -116q-49 -41 -123 -41q-63 0 -110.5 48.5 t-47.5 110.5z" />
<glyph unicode="&#xd1;" horiz-adv-x="1800" d="M41 4v1473h473q41 -43 471 -535q58 -66 164 -207q-19 89 -19 180v558h543v-1471h-475q-55 71 -330 370q-206 224 -301 392q19 -191 19 -193v-567h-545zM399 1718q120 166 273 166v2q54 0 154 -37t153 -37t94 52l180 -123q-151 -152 -266 -152q-54 0 -154.5 39t-154.5 39 q-53 0 -100 -55z" />
<glyph unicode="&#xd2;" horiz-adv-x="1634" d="M-2 731q0 348 215 561t563 213q342 0 559 -210t217 -550q0 -346 -217.5 -561t-564.5 -215q-337 0 -553 212q-219 214 -219 550zM295 1876h442l170 -291h-317zM541 733q0 -118 59 -202q67 -95 180 -95q112 0 176 96q56 84 56 201q0 119 -54 205q-64 101 -176 100 q-124 0 -187 -94q-54 -81 -54 -211z" />
<glyph unicode="&#xd3;" horiz-adv-x="1634" d="M-2 731q0 348 215 561t563 213q342 0 559 -210t217 -550q0 -346 -217.5 -561t-564.5 -215q-337 0 -553 212q-219 214 -219 550zM541 733q0 -118 59 -202q67 -95 180 -95q112 0 176 96q56 84 56 201q0 119 -54 205q-64 101 -176 100q-124 0 -187 -94q-54 -81 -54 -211z M580 1585l170 293h452q-64 -52 -157 -144q-122 -121 -152 -149h-313z" />
<glyph unicode="&#xd4;" horiz-adv-x="1634" d="M-2 731q0 348 215 561t563 213q342 0 559 -210t217 -550q0 -346 -217.5 -561t-564.5 -215q-337 0 -553 212q-219 214 -219 550zM354 1587l117 291h545l112 -289h-288l-97 135l-110 -137h-279zM541 733q0 -118 59 -202q67 -95 180 -95q112 0 176 96q56 84 56 201 q0 119 -54 205q-64 101 -176 100q-124 0 -187 -94q-54 -81 -54 -211z" />
<glyph unicode="&#xd5;" horiz-adv-x="1634" d="M-2 733q0 348 215 561t563 213q342 0 559 -210t217 -549q0 -347 -217.5 -562t-564.5 -215q-337 0 -553 212q-219 214 -219 550zM313 1716q121 168 273 168v2q55 0 155.5 -37.5t153.5 -38.5q38 0 92 54l182 -123q-84 -80 -119 -104q-72 -48 -149 -48q-54 0 -154.5 39 t-154.5 39q-59 0 -98 -55zM541 735q0 -118 59 -202q67 -95 180 -95q112 0 176 97q56 83 56 200q0 120 -54 205q-64 101 -176 100q-124 0 -187 -94q-54 -81 -54 -211z" />
<glyph unicode="&#xd6;" horiz-adv-x="1634" d="M-2 731q0 348 215 561t563 213q342 0 559 -210t217 -550q0 -346 -217.5 -561t-564.5 -215q-337 0 -553 212q-219 214 -219 550zM311 1720q0 66 57 110q52 40 119 40q69 0 115 -51q43 -50 43 -119q0 -63 -48.5 -105.5t-111.5 -42.5q-75 0 -123.5 47.5t-48.5 122.5z M541 733q0 -118 59 -202q67 -95 180 -95q112 0 176 96q56 84 56 201q0 119 -54 205q-64 101 -176 100q-124 0 -187 -94q-54 -81 -54 -211zM915 1716q0 67 52 113q50 43 118 43h-2q66 0 116 -45.5t50 -110.5q0 -74 -45 -117t-121 -43q-72 0 -120 44.5t-48 115.5z" />
<glyph unicode="&#xd8;" horiz-adv-x="1634" d="M-14 121l159 145l2 -2q-147 216 -147 484q0 339 223 549q218 206 559 206q301 0 527 -176l149 137l109 -112l-162 -138q151 -183 151 -471q0 -356 -225 -566q-220 -204 -579 -204q-284 0 -506 179l-156 -140zM545 766q0 -65 12 -129l373 338q-75 61 -142 61 q-111 0 -179 -80q-64 -75 -64 -190zM629 502q57 -64 141 -64l2 2q112 0 179 76q63 72 63 186q0 79 -10 136z" />
<glyph unicode="&#xd9;" horiz-adv-x="1759" d="M43 768v713h543v-766q0 -316 254 -316q245 0 245 336v746h543v-690q0 -413 -190 -612q-194 -204 -604 -204q-791 0 -791 793zM362 1876h443l170 -291h-320z" />
<glyph unicode="&#xda;" horiz-adv-x="1759" d="M43 768v713h543v-766q0 -316 254 -316q245 0 245 336v746h543v-690q0 -413 -190 -612q-194 -204 -604 -204q-791 0 -791 793zM643 1585l172 293h453q-69 -48 -160 -141q-130 -134 -150 -152h-315z" />
<glyph unicode="&#xdb;" horiz-adv-x="1759" d="M43 768v713h543v-766q0 -316 254 -316q245 0 245 336v746h543v-690q0 -413 -190 -612q-194 -204 -604 -204q-791 0 -791 793zM418 1587l117 291h546l115 -289h-293l-94 135l-109 -137h-282z" />
<glyph unicode="&#xdc;" horiz-adv-x="1759" d="M47 768v713h543v-766q0 -316 254 -316q246 0 246 336v746h542v-690q0 -413 -190 -612q-194 -204 -604 -204q-791 0 -791 793zM377 1716q0 61 44.5 108.5t104.5 47.5h2q73 0 125 -41q56 -44 56 -115t-48 -115.5t-118 -44.5q-68 0 -117 46.5t-49 113.5zM983 1722 q0 64 55 109t119 45q66 0 113.5 -47t46.5 -113q-1 -69 -47.5 -114.5t-114.5 -45.5q-73 0 -122.5 47t-49.5 119z" />
<glyph unicode="&#xdf;" d="M53 0v1069q0 219 185 335q154 96 387 97q234 1 389 -71q207 -96 207 -304q0 -102 -42 -163q-38 -56 -132 -109q280 -67 280 -385q0 -207 -108 -345q-117 -150 -318 -151q-156 0 -285 41v359q54 -8 84 -8q64 0 107 41t43 106q0 170 -217 170v305q136 24 137 109 q2 127 -113 127q-62 0 -97 -49q-32 -43 -32 -107l-2 -1067h-473z" />
<glyph unicode="&#xe0;" horiz-adv-x="1212" d="M16 262q0 147 116 227q52 36 245 107q78 29 231 90q-3 70 -22 94q-23 31 -90 31q-204 0 -451 -256v408q225 206 551 204q176 -1 306 -74q154 -88 173 -249q7 -54 8 -162q1 -44 -2 -116q-3 -88 -4 -115q-1 -105 127 -105l-100 -377q-153 7 -216 19q-120 23 -196 88 q-167 -91 -323 -92q-150 -1 -243 61q-110 73 -110 217zM88 1575h432l182 -318h-278zM389 293q0 -37 38 -65q35 -27 73 -27q24 0 57 13q46 19 53 22v229q-221 -72 -221 -172z" />
<glyph unicode="&#xe1;" horiz-adv-x="1212" d="M16 262q0 147 116 227q52 36 245 107q78 29 231 90q-3 70 -22 94q-23 31 -90 31q-204 0 -451 -256v408q225 206 551 204q176 -1 306 -74q154 -88 173 -249q7 -54 8 -162q1 -44 -2 -116q-3 -88 -4 -115q-1 -105 127 -105l-100 -377q-153 7 -216 19q-120 23 -196 88 q-167 -91 -323 -92q-150 -1 -243 61q-110 73 -110 217zM389 293q0 -37 38 -65q35 -27 73 -27q24 0 57 13q46 19 53 22v229q-221 -72 -221 -172zM418 1255l178 326h444q-142 -125 -177 -157q-99 -91 -167 -169h-278z" />
<glyph unicode="&#xe2;" horiz-adv-x="1212" d="M16 262q0 147 116 227q52 36 245 107q78 29 231 90q-3 70 -22 94q-23 31 -90 31q-204 0 -451 -256v408q225 206 551 204q176 -1 306 -74q154 -88 173 -249q7 -54 8 -162q1 -44 -2 -116q-3 -88 -4 -115q-1 -105 127 -105l-100 -377q-153 7 -216 19q-120 23 -196 88 q-167 -91 -323 -92q-150 -1 -243 61q-110 73 -110 217zM119 1255l192 326h480l182 -324h-268l-156 136l-154 -138h-276zM389 293q0 -37 38 -65q35 -27 73 -27q24 0 57 13q46 19 53 22v229q-221 -72 -221 -172z" />
<glyph unicode="&#xe3;" horiz-adv-x="1212" d="M16 262q0 147 116 227q52 36 245 107q78 29 231 90q-3 70 -22 94q-23 31 -90 31q-204 0 -451 -256v408q225 206 551 204q176 -1 306 -74q154 -88 173 -249q7 -54 8 -162q1 -44 -2 -116q-3 -88 -4 -115q-1 -105 127 -105l-100 -377q-153 7 -216 19q-120 23 -196 88 q-167 -91 -323 -92q-150 -1 -243 61q-110 73 -110 217zM117 1399q36 66 114 115t152 49q55 0 159 -37t160 -37q51 0 93 49l176 -117q-119 -149 -262 -149q-57 0 -155.5 37t-145.5 37q-48 0 -111 -52zM389 293q0 -37 38 -65q35 -27 73 -27q24 0 57 13q46 19 53 22v229 q-221 -72 -221 -172z" />
<glyph unicode="&#xe4;" horiz-adv-x="1212" d="M18 254q0 145 135 238q82 57 263 114q58 16 151 49q41 21 41 72q0 75 -104 74q-215 -2 -457 -244v393q237 207 571 207q135 0 226 -39q250 -107 250 -411q0 -34 -4.5 -101.5t-4.5 -101.5q0 -164 127 -164l-106 -365q-151 3 -215 14q-122 22 -191 91q-167 -96 -315 -96 q-151 0 -249 58q-118 71 -118 212zM154 1419q0 64 53 112.5t119 47.5q73 -1 121.5 -52t48.5 -124q0 -66 -54.5 -112t-122.5 -46q-71 0 -118 50.5t-47 123.5zM391 295q1 -43 40 -72q35 -26 79 -26q34 0 104 47v221q-111 -45 -139 -61q-85 -49 -84 -109zM709 1399q0 82 57 133 t139 51h2q55 0 101 -57q43 -54 43 -111q-1 -72 -50.5 -120t-121.5 -48q-63 0 -115 45q-55 46 -55 107z" />
<glyph unicode="&#xe5;" horiz-adv-x="1212" d="M18 248q0 151 110 230q51 37 245 108q78 29 235 86v33q0 95 -119 94q-213 -2 -444 -254v407q233 203 563 203q145 0 246 -47q136 -63 189 -172q45 -92 47 -254q0 -40 -3.5 -118t-3.5 -115q0 -103 104 -103q11 0 23 2l-106 -375q-172 8 -215 15q-117 22 -191 94 q-157 -96 -329 -96q-143 0 -238 58q-113 69 -113 204zM358 1423q0 105 70 176.5t174 71.5v-2q99 0 166.5 -72.5t67.5 -171.5q-1 -95 -73 -162.5t-167 -66.5q-94 1 -166 67.5t-72 159.5zM387 293q0 -39 41 -71q38 -29 78 -29q18 -1 106 40v232q-105 -42 -139 -62 q-86 -51 -86 -110zM526 1417q0 -21 20 -40t42 -19q27 0 51.5 16t24.5 43v17q0 25 -21 43.5t-45 19.5q-72 2 -72 -78v-2z" />
<glyph unicode="&#xe6;" horiz-adv-x="1800" d="M-8 258q0 150 114 231q52 38 246 111q74 27 221 82q0 72 -21 98q-25 31 -95 31h2q-196 0 -439 -252v406q158 112 274 155q135 50 310 49q98 0 258 -61l150 38q89 21 153 21q287 0 440 -197q136 -175 146 -472h-719q29 -203 293 -201q197 1 404 92v-307 q-289 -105 -535 -105q-235 0 -444 132q-191 -124 -410 -125q-138 -1 -236 66q-112 76 -112 208zM358 293q0 -35 38 -63q34 -26 71 -27q22 -1 52 12q25 11 50 23v225q-121 -53 -133 -60q-77 -46 -78 -110zM1032 686h281q0 68 -34 122q-39 64 -103 64q-69 0 -104 -63 q-19 -33 -40 -123z" />
<glyph unicode="&#xe7;" horiz-adv-x="1087" d="M14 557q0 272 192 446q185 168 460 168q73 0 173 -22q85 -21 171 -41v-412q-174 68 -260 68q-99 0 -166 -45q-76 -52 -76 -146q0 -87 75 -135q65 -43 156 -43q112 0 281 62l2 -410q-184 -65 -377 -65q-256 0 -439 157q-192 165 -192 418zM301 -506l12 176q66 -4 101 -4 q129 0 129 64q0 61 -72 77v17l76 184h215l-41 -108q83 -34 117 -66q49 -46 49 -121q0 -223 -414 -227q-50 -1 -172 8z" />
<glyph unicode="&#xe8;" horiz-adv-x="1257" d="M4 573q0 259 181 428q177 164 438 164q282 0 438 -207q141 -186 141 -477h-751v2q48 -108 106 -150q62 -43 176 -44q99 -1 228 30q3 1 223 62l-2 -303q-261 -101 -533 -101q-280 0 -458 156q-187 164 -187 440zM104 1575h433l180 -318h-275zM442 666h349q-19 99 -45 143 q-42 70 -123 70q-75 0 -130 -71q-51 -65 -51 -142z" />
<glyph unicode="&#xe9;" horiz-adv-x="1257" d="M4 573q0 259 181 428q177 164 438 164q282 0 438 -207q141 -186 141 -477h-751v2q48 -108 106 -150q62 -43 176 -44q99 -1 228 30q3 1 223 62l-2 -303q-261 -101 -533 -101q-280 0 -458 156q-187 164 -187 440zM436 1255l176 326h443q-119 -103 -342 -326h-277zM442 666 h349q-19 99 -45 143q-42 70 -123 70q-75 0 -130 -71q-51 -65 -51 -142z" />
<glyph unicode="&#xea;" horiz-adv-x="1257" d="M4 573q0 259 181 428q177 164 438 164q282 0 438 -207q141 -186 141 -477h-751v2q48 -108 106 -150q62 -43 176 -44q99 -1 228 30q3 1 223 62l-2 -303q-261 -101 -533 -101q-280 0 -458 156q-187 164 -187 440zM135 1255l191 326h483l178 -324h-268l-152 136l-155 -138 h-277zM442 666h349q-19 99 -45 143q-42 70 -123 70q-75 0 -130 -71q-51 -65 -51 -142z" />
<glyph unicode="&#xeb;" horiz-adv-x="1257" d="M6 573q0 259 181 428q177 164 438 164q282 0 438 -207q141 -186 141 -477h-751v2q48 -108 106 -150q62 -43 176 -44q99 -1 228 30q3 1 223 62l-2 -303q-261 -101 -533 -101q-280 0 -458 156q-187 164 -187 440zM115 1421q0 68 50.5 118t117.5 50h2q74 0 121 -48.5 t47 -123.5q-1 -62 -45 -112q-46 -53 -107 -50l-37 2q-61 4 -105 54t-44 110zM444 666h349q-19 99 -45 143q-42 70 -123 70q-75 0 -130 -71q-51 -65 -51 -142zM674 1423q0 72 49.5 120t120.5 48q72 0 120 -48.5t48 -121.5q0 -68 -52 -116t-120 -48q-65 0 -115.5 51t-50.5 115 z" />
<glyph unicode="&#xec;" horiz-adv-x="670" d="M-162 1575h434l181 -318h-279zM92 2v1145h477v-1145h-477z" />
<glyph unicode="&#xed;" horiz-adv-x="670" d="M92 2v1145h477v-1145h-477zM168 1255l180 326h445q-120 -103 -347 -326h-278z" />
<glyph unicode="&#xee;" horiz-adv-x="670" d="M-131 1255l188 326h484l178 -324h-268l-154 136l-152 -138h-276zM90 2v1145h477v-1145h-477z" />
<glyph unicode="&#xef;" horiz-adv-x="670" d="M-150 1423q0 67 51 116.5t117 49.5q75 0 124 -48.5t48 -123.5q0 -69 -50.5 -114.5t-119.5 -45.5q-69 1 -119.5 49.5t-50.5 116.5zM92 2v1145h477v-1145h-477zM410 1425q0 71 48.5 118.5t119.5 47.5h-3q73 0 123 -49t50 -121q0 -68 -53 -116t-122 -48q-65 0 -114 51 t-49 117z" />
<glyph unicode="&#xf1;" d="M53 0v1145h473v-98q117 67 166 87q90 37 182 37q186 0 294 -155q96 -137 96 -330v-688h-473l2 596q0 164 -105 164q-84 0 -158 -96v-662h-477zM201 1397q122 166 264 166q56 0 160 -37t159 -37q37 0 95 49l176 -117q-109 -149 -260 -149q-59 0 -158 37.5t-145 38.5 q-61 0 -111 -54z" />
<glyph unicode="&#xf2;" d="M-2 580q0 262 211 433q198 161 467 161q268 0 452 -173q189 -176 189 -444q0 -247 -199 -418q-189 -164 -442 -164q-274 0 -470 163q-208 173 -208 442zM168 1575h432l180 -318h-276zM479 557q0 -70 54 -131t122 -61q76 0 132 67q53 64 53 139q0 79 -49 142 q-53 67 -129 67q-87 0 -138 -71q-45 -63 -45 -152z" />
<glyph unicode="&#xf3;" d="M-2 580q0 262 211 433q198 161 467 161q268 0 452 -173q189 -176 189 -444q0 -247 -199 -418q-189 -164 -442 -164q-274 0 -470 163q-208 173 -208 442zM479 557q0 -70 54 -131t122 -61q76 0 132 67q53 64 53 139q0 79 -49 142q-53 67 -129 67q-87 0 -138 -71 q-45 -63 -45 -152zM498 1255l180 326h440q-119 -103 -344 -326h-276z" />
<glyph unicode="&#xf4;" d="M-2 580q0 262 211 433q198 161 467 161q268 0 452 -173q189 -176 189 -444q0 -247 -199 -418q-189 -164 -442 -164q-274 0 -470 163q-208 173 -208 442zM199 1255l188 326h483l183 -324h-273l-151 136l-152 -138h-278zM479 557q0 -70 54 -131t122 -61q76 0 132 67 q53 64 53 139q0 79 -49 142q-53 67 -129 67q-87 0 -138 -71q-45 -63 -45 -152z" />
<glyph unicode="&#xf5;" d="M-2 580q0 262 211 433q198 161 467 161q268 0 452 -173q189 -176 189 -444q0 -247 -199 -418q-189 -164 -442 -164q-274 0 -470 163q-208 173 -208 442zM197 1397q122 166 264 166q56 0 160 -37t159 -37q37 0 94 49l177 -117q-109 -149 -260 -149q-59 0 -158 37.5 t-146 38.5q-60 0 -110 -54zM479 557q0 -70 54 -131t122 -61q76 0 132 67q53 64 53 139q0 79 -49 142q-53 67 -129 67q-87 0 -138 -71q-45 -63 -45 -152z" />
<glyph unicode="&#xf6;" d="M-2 571q0 258 210 432q198 164 462 164q265 0 455 -164q198 -173 198 -434v-2q0 -265 -203 -432q-189 -158 -461 -158q-265 0 -458 163q-203 171 -203 431zM221 1417q0 67 55 116q53 46 121 46q66 0 116 -53.5t50 -118.5q0 -69 -50 -118.5t-120 -49.5q-76 0 -124 51 t-48 127zM483 559q0 -69 49 -131q51 -68 117 -68q84 0 138.5 62t54.5 147q0 82 -48 141q-51 64 -130 64q-86 0 -136 -67q-45 -60 -45 -148zM776 1407q0 68 53.5 121t120.5 53h-2q66 0 118 -52t52 -118q0 -69 -48.5 -118.5t-119.5 -49.5q-72 0 -123 46t-51 118z" />
<glyph unicode="&#xf7;" horiz-adv-x="1081" d="M-8 477v111h1063v-111h-1063zM399 256q0 46 33.5 80.5t79.5 34.5t79.5 -34.5t33.5 -80.5t-33.5 -79.5t-79.5 -33.5t-79.5 33.5t-33.5 79.5zM399 809q0 46 33.5 79.5t79.5 33.5t79.5 -33.5t33.5 -79.5t-33.5 -79.5t-79.5 -33.5t-79.5 33.5t-33.5 79.5z" />
<glyph unicode="&#xf8;" d="M0 567q0 268 206 440q195 161 468 160q212 -1 401 -129l144 136l100 -109l-137 -121q137 -188 137 -360q0 -282 -201 -449q-188 -158 -475 -158q-109 0 -205 35q-55 20 -188 88l-148 -131l-94 105l137 123q-145 207 -145 370zM483 584q0 -25 9 -74l264 233q-54 37 -92 37 q-76 0 -128.5 -60t-52.5 -136zM571 393q50 -31 93 -31q64 0 121 63.5t57 129.5q0 45 -8 78z" />
<glyph unicode="&#xf9;" d="M51 444v701h475v-627q0 -53 36.5 -94t88.5 -41q93 0 142 78v684h475v-680q0 -80 18 -107q21 -30 96 -45l-98 -342h-94q-149 0 -213 22q-79 26 -178 120q-68 -57 -163 -96q-102 -42 -183 -42q-195 0 -303 141q-99 128 -99 328zM172 1575h432l180 -318h-276z" />
<glyph unicode="&#xfa;" d="M51 444v701h475v-627q0 -53 36.5 -94t88.5 -41q93 0 142 78v684h475v-680q0 -80 18 -107q21 -30 96 -45l-98 -342h-94q-149 0 -213 22q-79 26 -178 120q-68 -57 -163 -96q-102 -42 -183 -42q-195 0 -303 141q-99 128 -99 328zM502 1255l180 326h440q-118 -103 -344 -326 h-276z" />
<glyph unicode="&#xfb;" d="M51 444v701h475v-627q0 -53 36.5 -94t88.5 -41q93 0 142 78v684h475v-680q0 -80 18 -107q21 -30 96 -45l-98 -342h-94q-149 0 -213 22q-79 26 -178 120q-68 -57 -163 -96q-102 -42 -183 -42q-195 0 -303 141q-99 128 -99 328zM203 1255l188 326h483l183 -324h-273 l-151 136l-152 -138h-278z" />
<glyph unicode="&#xfc;" d="M55 430v705h477v-613q0 -141 134 -141q61 0 137 72v682h473l2 -670q0 -83 15 -108q20 -33 96 -46l-95 -334h-149q-124 0 -188 25q-74 29 -150 117q-197 -142 -358 -142q-181 0 -292 139q-102 129 -102 314zM223 1411q0 67 55 118.5t123 51.5v-2q67 0 115.5 -51.5 t48.5 -118.5q0 -63 -49 -113.5t-113 -50.5q-71 0 -125 47t-55 119zM782 1407q0 72 53 122t126 50l-3 2q63 0 113.5 -49.5t50.5 -112.5q1 -72 -44.5 -123t-119.5 -51q-71 0 -122 44q-54 47 -54 118z" />
<glyph unicode="&#xff;" horiz-adv-x="1298" d="M-76 1143h525v2q1 -5 87 -218q53 -131 72 -222q89 232 197 438h479l-795 -1667h-462l342 729zM127 1423q0 69 51 117.5t119 48.5q74 0 123 -49t49 -123q0 -61 -47.5 -111.5t-108.5 -50.5h-37q-59 0 -104 53t-45 115zM686 1438q0 64 53 110q51 43 115 43q73 0 122.5 -48.5 t49.5 -121.5q0 -68 -52.5 -116t-121.5 -48q-73 0 -121 56q-45 52 -45 127v-2z" />
<glyph unicode="&#x152;" horiz-adv-x="2179" d="M-25 743q0 327 230 541q226 210 555 209q42 0 128 -7t130 -7h1073v-334h-547v-217h516v-334h-516v-262h578v-334h-1123q-37 0 -112 -11.5t-113 -11.5q-335 0 -564 215q-235 220 -235 553zM543 735q0 -159 96 -274q101 -121 258 -127l51 -2q14 -1 56 4v809h-35 q-199 0 -311 -104q-116 -108 -115 -306z" />
<glyph unicode="&#x153;" horiz-adv-x="2052" d="M-35 569q0 269 203 440q191 162 465 162q106 0 200 -30q29 -9 187 -76q179 104 371 104q324 0 489 -256q79 -122 105 -411l-711 -2q12 -205 303 -205q203 0 391 94v-307q-285 -105 -518 -107q-277 -1 -430 117q-143 -115 -383 -115q-264 0 -461 162q-211 172 -211 430z M446 573q0 -75 45 -138q50 -68 123 -68q84 0 139 67q51 64 50 150q-1 77 -50 136q-52 62 -126 62q-81 0 -133 -65q-48 -60 -48 -144zM1264 686h303q-40 191 -154 193q-112 1 -149 -193z" />
<glyph unicode="&#x178;" horiz-adv-x="1550" d="M-78 1475h637v-2l116 -190q67 -112 97 -200q27 87 93 200l114 190h557l-532 -797v-674h-549l-2 657q-21 37 -64 109zM221 1724q0 68 45.5 115.5t112.5 48.5q70 1 123 -43t53 -112q0 -70 -48.5 -118t-117.5 -48q-72 0 -120 44t-48 115v-2zM827 1724q0 68 47 113t115 45 q70 0 119 -44q51 -47 51 -116q0 -72 -50.5 -115.5t-123.5 -43.5q-64 -1 -111 48.5t-47 112.5z" />
<glyph unicode="&#x2c6;" horiz-adv-x="0" d="M-438 1255l192 326h482l178 -324h-269l-151 136l-154 -138h-278z" />
<glyph unicode="&#x2dc;" horiz-adv-x="0" d="M-440 1397q34 66 113.5 116t152.5 50h-2q56 0 160 -37t159 -37q63 0 95 49l176 -117q-106 -149 -260 -149q-57 0 -156 37.5t-148 38.5q-34 0 -59.5 -17.5t-50.5 -36.5z" />
<glyph unicode="&#x2000;" horiz-adv-x="972" />
<glyph unicode="&#x2001;" horiz-adv-x="1944" />
<glyph unicode="&#x2002;" horiz-adv-x="972" />
<glyph unicode="&#x2003;" horiz-adv-x="1944" />
<glyph unicode="&#x2004;" horiz-adv-x="648" />
<glyph unicode="&#x2005;" horiz-adv-x="486" />
<glyph unicode="&#x2006;" horiz-adv-x="324" />
<glyph unicode="&#x2007;" horiz-adv-x="324" />
<glyph unicode="&#x2008;" horiz-adv-x="243" />
<glyph unicode="&#x2009;" horiz-adv-x="388" />
<glyph unicode="&#x200a;" horiz-adv-x="108" />
<glyph unicode="&#x2010;" horiz-adv-x="756" d="M43 336v418h659v-418h-659z" />
<glyph unicode="&#x2011;" horiz-adv-x="756" d="M43 336v418h659v-418h-659z" />
<glyph unicode="&#x2012;" horiz-adv-x="756" d="M43 336v418h659v-418h-659z" />
<glyph unicode="&#x2013;" horiz-adv-x="1339" d="M16 350v424h1244v-424h-1244z" />
<glyph unicode="&#x2014;" horiz-adv-x="1339" d="M-68 477v266h1403v-266h-1403z" />
<glyph unicode="&#x2018;" horiz-adv-x="756" d="M53 952q0 249 193 390q146 108 422 163l30 -112q-172 -90 -233 -248q85 -63 115 -103q44 -59 45 -145q0 -114 -75 -200q-79 -89 -192 -89q-139 0 -225 105q-80 98 -80 239z" />
<glyph unicode="&#x2019;" horiz-adv-x="756" d="M35 717q106 66 145 105q58 58 86 155q-69 28 -114 105q-43 72 -43 151q-1 117 87 194q85 74 205 74q125 0 208 -110q75 -101 75 -230q0 -132 -76 -258q-85 -141 -234 -208q-86 -38 -306 -85z" />
<glyph unicode="&#x201a;" horiz-adv-x="721" d="M35 -274q173 88 233 256v-2q-155 99 -155 253q0 117 75.5 198t192.5 81q137 0 223 -103q80 -97 80 -237q0 -244 -191 -394q-166 -130 -423 -157z" />
<glyph unicode="&#x201c;" horiz-adv-x="1464" d="M45 969q0 235 194 387q169 132 416 160l41 -105l-2 -2q-106 -68 -141 -102q-55 -54 -90 -148q158 -100 158 -252q0 -114 -79.5 -199t-193.5 -85q-139 0 -224 106q-79 98 -79 240zM772 973q0 239 192 385q163 124 418 155l33 -106q-151 -70 -233 -252q86 -49 122 -106 q39 -61 39 -156q0 -107 -80 -191t-188 -84q-145 0 -227 108q-76 98 -76 247z" />
<glyph unicode="&#x201d;" horiz-adv-x="1464" d="M-2 723q98 51 142 105q30 37 87 155v2q-73 32 -115 101t-42 151q-1 113 81 192.5t195 79.5q145 0 226 -116q71 -101 71 -252q0 -230 -200 -372q-163 -116 -414 -151zM723 723q95 49 143 108q16 20 95 152q-74 25 -119 102q-43 71 -43 152q-1 115 82.5 193.5t201.5 78.5 q130 1 214 -110q77 -102 77 -238q0 -135 -78 -262q-81 -132 -238 -200q-89 -39 -304 -85z" />
<glyph unicode="&#x201e;" horiz-adv-x="1464" d="M-10 -272q147 49 237 254l2 -2q-76 31 -121 103q-42 69 -42 153q0 114 78.5 194t191.5 80q142 0 224 -104q75 -95 75 -242q0 -240 -192 -389q-167 -130 -420 -154zM719 -276q98 57 141 105q27 31 94 146q-88 60 -120 107q-41 59 -41 154q0 110 77.5 191t188.5 81 q144 0 229 -101q80 -96 80 -243q0 -429 -614 -549z" />
<glyph unicode="&#x2022;" horiz-adv-x="692" d="M76 735q0 111 82 191t192 80q112 0 190 -80t78 -191q0 -114 -75.5 -192.5t-190.5 -79.5q-112 -1 -194 79t-82 193z" />
<glyph unicode="&#x2026;" horiz-adv-x="2081" d="M240 0v221h217v-221h-217zM934 0v221h215v-221h-215zM1626 0v221h217v-221h-217z" />
<glyph unicode="&#x202f;" horiz-adv-x="388" />
<glyph unicode="&#x2039;" horiz-adv-x="692" d="M182 481v191l328 258v-185l-219 -167l219 -170v-183z" />
<glyph unicode="&#x203a;" horiz-adv-x="692" d="M182 225v183l219 170l-219 167v185l328 -258v-191z" />
<glyph unicode="&#x205f;" horiz-adv-x="486" />
<glyph unicode="&#x2122;" horiz-adv-x="1755" d="M-12 1165l6 195h641l6 -195l-37 -4v21q0 88 -77 116q-40 15 -152 17v-629q0 -57 100 -57v-37h-323l2 37q102 0 102 57v627q-118 -2 -160 -20q-75 -32 -71 -132zM700 1323v37h230l268 -584l254 584h225v-37h-18q-80 0 -80 -51v-586q0 -57 100 -57v-37h-323l2 37 q102 0 102 57v559l-270 -653h-39l-291 620v-526q0 -57 105 -57v-37h-260v37q102 0 102 57v565q0 52 -31 65q-16 7 -76 7z" />
<glyph unicode="&#x25fc;" horiz-adv-x="1145" d="M0 0v1145h1145v-1145h-1145z" />
</font>
</defs>
</svg>
